<svg xmlns="http://www.w3.org/2000/svg" width="31" height="31" viewBox="0 0 31 31" fill="none">
  <path d="M10.1875 3.53223C10.1875 3.01446 9.76777 2.59473 9.25 2.59473C8.73223 2.59473 8.3125 3.01446 8.3125 3.53223V5.5063C6.51334 5.65037 5.33221 6.00394 4.46447 6.87169C3.59672 7.73944 3.24314 8.92056 3.09907 10.7197H27.9009C27.7569 8.92056 27.4033 7.73944 26.5355 6.87169C25.6678 6.00394 24.4867 5.65037 22.6875 5.5063V3.53223C22.6875 3.01446 22.2678 2.59473 21.75 2.59473C21.2322 2.59473 20.8125 3.01446 20.8125 3.53223V5.42335C19.9809 5.40723 19.0488 5.40723 18 5.40723H13C11.9512 5.40723 11.0191 5.40723 10.1875 5.42335V3.53223Z" fill="url(#paint0_linear_241_3463)"/>
  <path fill-rule="evenodd" clip-rule="evenodd" d="M3 15.4072C3 14.3584 3 13.4263 3.01613 12.5947H27.9839C28 13.4263 28 14.3584 28 15.4072V17.9072C28 22.6213 28 24.9783 26.5355 26.4428C25.0711 27.9072 22.714 27.9072 18 27.9072H13C8.28595 27.9072 5.92893 27.9072 4.46447 26.4428C3 24.9783 3 22.6213 3 17.9072V15.4072ZM21.75 17.9072C22.4404 17.9072 23 17.3476 23 16.6572C23 15.9669 22.4404 15.4072 21.75 15.4072C21.0596 15.4072 20.5 15.9669 20.5 16.6572C20.5 17.3476 21.0596 17.9072 21.75 17.9072ZM21.75 22.9072C22.4404 22.9072 23 22.3476 23 21.6572C23 20.9669 22.4404 20.4072 21.75 20.4072C21.0596 20.4072 20.5 20.9669 20.5 21.6572C20.5 22.3476 21.0596 22.9072 21.75 22.9072ZM16.75 16.6572C16.75 17.3476 16.1904 17.9072 15.5 17.9072C14.8096 17.9072 14.25 17.3476 14.25 16.6572C14.25 15.9669 14.8096 15.4072 15.5 15.4072C16.1904 15.4072 16.75 15.9669 16.75 16.6572ZM16.75 21.6572C16.75 22.3476 16.1904 22.9072 15.5 22.9072C14.8096 22.9072 14.25 22.3476 14.25 21.6572C14.25 20.9669 14.8096 20.4072 15.5 20.4072C16.1904 20.4072 16.75 20.9669 16.75 21.6572ZM9.25 17.9072C9.94036 17.9072 10.5 17.3476 10.5 16.6572C10.5 15.9669 9.94036 15.4072 9.25 15.4072C8.55964 15.4072 8 15.9669 8 16.6572C8 17.3476 8.55964 17.9072 9.25 17.9072ZM9.25 22.9072C9.94036 22.9072 10.5 22.3476 10.5 21.6572C10.5 20.9669 9.94036 20.4072 9.25 20.4072C8.55964 20.4072 8 20.9669 8 21.6572C8 22.3476 8.55964 22.9072 9.25 22.9072Z" fill="url(#paint1_linear_241_3463)"/>
  <defs>
    <linearGradient id="paint0_linear_241_3463" x1="3" y1="15.251" x2="28" y2="15.251" gradientUnits="userSpaceOnUse">
      <stop stop-color="#101E3B"/>
      <stop offset="1" stop-color="#2C52A1"/>
    </linearGradient>
    <linearGradient id="paint1_linear_241_3463" x1="3" y1="15.251" x2="28" y2="15.251" gradientUnits="userSpaceOnUse">
      <stop stop-color="#101E3B"/>
      <stop offset="1" stop-color="#2C52A1"/>
    </linearGradient>
  </defs>
</svg>