<svg xmlns="http://www.w3.org/2000/svg" width="31" height="31" viewBox="0 0 31 31" fill="none">
  <path fill-rule="evenodd" clip-rule="evenodd" d="M3.03125 14.2832C3.51066 7.81752 8.90843 2.7207 15.4966 2.7207C14.458 2.7207 13.5333 3.17596 12.7726 3.87211C12.0157 4.56477 11.3761 5.53167 10.8587 6.67464C10.3384 7.82435 9.93413 9.16905 9.66053 10.6283C9.44121 11.7981 9.30774 13.0313 9.26326 14.2832H3.03125ZM3.03125 16.1582H9.26326C9.30774 17.4101 9.44121 18.6433 9.66053 19.8131C9.93413 21.2724 10.3384 22.6171 10.8587 23.7668C11.3761 24.9097 12.0157 25.8766 12.7726 26.5693C13.5333 27.2654 14.458 27.7207 15.4966 27.7207C8.90843 27.7207 3.51066 22.6239 3.03125 16.1582Z" fill="url(#paint0_linear_241_3457)"/>
  <path d="M15.4966 4.46489C15.1529 4.46489 14.7088 4.61116 14.1924 5.08372C13.6722 5.55978 13.1514 6.30589 12.6913 7.32242C12.2342 8.33221 11.8631 9.55121 11.6077 10.9134C11.4065 11.9862 11.2818 13.1234 11.238 14.2832H19.7553C19.7115 13.1234 19.5867 11.9862 19.3856 10.9134C19.1302 9.55121 18.759 8.33221 18.302 7.32242C17.8419 6.30589 17.3211 5.55978 16.8009 5.08372C16.2845 4.61116 15.8404 4.46489 15.4966 4.46489Z" fill="url(#paint1_linear_241_3457)"/>
  <path d="M11.6077 19.528C11.8631 20.8902 12.2342 22.1092 12.6913 23.119C13.1514 24.1355 13.6722 24.8816 14.1924 25.3577C14.7088 25.8302 15.1529 25.9765 15.4966 25.9765C15.8404 25.9765 16.2845 25.8302 16.8009 25.3577C17.3211 24.8816 17.8419 24.1355 18.302 23.119C18.759 22.1092 19.1302 20.8902 19.3856 19.528C19.5867 18.4552 19.7115 17.318 19.7553 16.1582H11.238C11.2818 17.318 11.4065 18.4552 11.6077 19.528Z" fill="url(#paint2_linear_241_3457)"/>
  <path d="M15.4966 2.7207C16.5352 2.7207 17.4599 3.17596 18.2206 3.87211C18.9775 4.56477 19.6172 5.53167 20.1345 6.67465C20.6549 7.82436 21.0591 9.16906 21.3327 10.6283C21.552 11.7981 21.6855 13.0313 21.73 14.2832H27.962C27.4826 7.81752 22.0848 2.7207 15.4966 2.7207Z" fill="url(#paint3_linear_241_3457)"/>
  <path d="M21.3327 19.8131C21.0591 21.2724 20.6549 22.6171 20.1345 23.7668C19.6172 24.9097 18.9775 25.8766 18.2206 26.5693C17.4599 27.2654 16.5352 27.7207 15.4966 27.7207C22.0848 27.7207 27.4826 22.6239 27.962 16.1582H21.73C21.6855 17.4101 21.552 18.6433 21.3327 19.8131Z" fill="url(#paint4_linear_241_3457)"/>
  <defs>
    <linearGradient id="paint0_linear_241_3457" x1="3.03125" y1="15.2207" x2="27.962" y2="15.2207" gradientUnits="userSpaceOnUse">
      <stop stop-color="#101E3B"/>
      <stop offset="1" stop-color="#2C52A1"/>
    </linearGradient>
    <linearGradient id="paint1_linear_241_3457" x1="3.03125" y1="15.2207" x2="27.962" y2="15.2207" gradientUnits="userSpaceOnUse">
      <stop stop-color="#101E3B"/>
      <stop offset="1" stop-color="#2C52A1"/>
    </linearGradient>
    <linearGradient id="paint2_linear_241_3457" x1="3.03125" y1="15.2207" x2="27.962" y2="15.2207" gradientUnits="userSpaceOnUse">
      <stop stop-color="#101E3B"/>
      <stop offset="1" stop-color="#2C52A1"/>
    </linearGradient>
    <linearGradient id="paint3_linear_241_3457" x1="3.03125" y1="15.2207" x2="27.962" y2="15.2207" gradientUnits="userSpaceOnUse">
      <stop stop-color="#101E3B"/>
      <stop offset="1" stop-color="#2C52A1"/>
    </linearGradient>
    <linearGradient id="paint4_linear_241_3457" x1="3.03125" y1="15.2207" x2="27.962" y2="15.2207" gradientUnits="userSpaceOnUse">
      <stop stop-color="#101E3B"/>
      <stop offset="1" stop-color="#2C52A1"/>
    </linearGradient>
  </defs>
</svg>