<svg width="116" height="20" viewBox="0 0 116 20" fill="none" xmlns="http://www.w3.org/2000/svg">
<g clip-path="url(#clip0_241_3496)">
<path d="M11.1318 18.4834V0.82488H14.9157V18.4834H11.1318ZM0.0573599 18.4834V0.82488H3.84133V18.4834H0.0573599ZM3.36203 10.9911V7.93874H11.7372V10.9911H3.36203Z" fill="#252F3D"/>
<path d="M27.7803 18.4834V5.76927H31.1355L31.4886 8.0901C31.825 7.55193 32.2202 7.08945 32.6743 6.70264C33.1284 6.31584 33.6497 6.01312 34.2383 5.79449C34.8438 5.57586 35.4912 5.46655 36.1808 5.46655V9.47755H34.9194C34.4149 9.47755 33.9524 9.53642 33.532 9.65414C33.1284 9.75505 32.7752 9.93163 32.4725 10.1839C32.1866 10.4362 31.9595 10.7809 31.7914 11.2182C31.64 11.6386 31.5643 12.1684 31.5643 12.8074V18.4834H27.7803ZM44.0806 18.7861C42.7689 18.7861 41.6168 18.517 40.6246 17.9789C39.6324 17.4239 38.8503 16.6587 38.2785 15.6833C37.7236 14.691 37.4461 13.5558 37.4461 12.2777C37.4461 10.9659 37.7236 9.79709 38.2785 8.77121C38.8335 7.74534 39.6071 6.93809 40.5994 6.34947C41.5916 5.76086 42.7436 5.46655 44.0554 5.46655C45.3335 5.46655 46.4519 5.74404 47.4105 6.29902C48.3691 6.854 49.1175 7.6108 49.6557 8.5694C50.2107 9.51119 50.4882 10.6043 50.4882 11.8488C50.4882 12.017 50.4797 12.2104 50.4629 12.429C50.4629 12.6309 50.4461 12.8411 50.4125 13.0597H40.1453V10.865H46.6285C46.5949 10.1587 46.3342 9.59528 45.8465 9.17484C45.3756 8.73758 44.787 8.51895 44.0806 8.51895C43.5425 8.51895 43.0548 8.64508 42.6175 8.89735C42.1802 9.14961 41.8271 9.52801 41.558 10.0325C41.3057 10.5371 41.1796 11.1761 41.1796 11.9497V12.7065C41.1796 13.2952 41.2889 13.8165 41.5075 14.2706C41.743 14.7247 42.0709 15.0778 42.4914 15.3301C42.9286 15.5824 43.4416 15.7085 44.0302 15.7085C44.5852 15.7085 45.0392 15.5992 45.3924 15.3805C45.7624 15.1451 46.0483 14.8508 46.2501 14.4976H50.1098C49.8743 15.3049 49.4707 16.0364 48.8989 16.6923C48.3271 17.3314 47.6292 17.8443 46.8051 18.2311C45.981 18.6011 45.0729 18.7861 44.0806 18.7861Z" fill="#252F3D"/>
<path d="M53.9714 18.4834V0.82488H60.1015C62.1532 0.82488 63.8434 1.19487 65.172 1.93484C66.5174 2.658 67.5096 3.68388 68.1487 5.01247C68.8046 6.32425 69.1325 7.87147 69.1325 9.65414C69.1325 11.42 68.8046 12.9672 68.1487 14.2958C67.5096 15.6076 66.5174 16.6335 65.172 17.3734C63.8434 18.1134 62.1532 18.4834 60.1015 18.4834H53.9714ZM57.7554 15.2292H59.8744C61.2366 15.2292 62.313 15.0106 63.1034 14.5733C63.8938 14.1192 64.4488 13.4802 64.7683 12.6561C65.1047 11.8152 65.2729 10.8146 65.2729 9.65414C65.2729 8.4769 65.1047 7.47626 64.7683 6.65219C64.4488 5.81131 63.8938 5.17224 63.1034 4.73498C62.313 4.2809 61.2366 4.05387 59.8744 4.05387H57.7554V15.2292ZM76.2472 18.7861C75.1877 18.7861 74.288 18.5675 73.548 18.1302C72.8248 17.693 72.2699 17.0539 71.883 16.213C71.5131 15.3553 71.3281 14.3126 71.3281 13.0849V5.76927H75.112V12.7065C75.112 13.6483 75.3054 14.3715 75.6922 14.876C76.079 15.3637 76.7013 15.6076 77.559 15.6076C78.0803 15.6076 78.5428 15.4899 78.9465 15.2544C79.3669 15.019 79.6864 14.6742 79.9051 14.2201C80.1405 13.7661 80.2582 13.2111 80.2582 12.5552V5.76927H84.0422V18.4834H80.7375L80.4348 16.4653C80.0648 17.1548 79.5267 17.7182 78.8203 18.1555C78.114 18.5759 77.2563 18.7861 76.2472 18.7861ZM92.5195 18.7861C91.3927 18.7861 90.3669 18.5002 89.4419 17.9284C88.5337 17.3566 87.8106 16.5746 87.2724 15.5824C86.7511 14.5733 86.4904 13.4297 86.4904 12.1516C86.4904 10.8566 86.7595 9.713 87.2976 8.72076C87.8358 7.7117 88.5674 6.92127 89.4924 6.34947C90.4341 5.76086 91.4768 5.46655 92.6204 5.46655C93.4949 5.46655 94.2602 5.62632 94.916 5.94585C95.5719 6.24857 96.1101 6.69423 96.5305 7.28285V0.320351H100.315V18.4834H96.9594L96.5305 16.8437C96.2783 17.1968 95.9671 17.5248 95.5972 17.8275C95.244 18.1134 94.8151 18.3404 94.3106 18.5086C93.8061 18.6936 93.209 18.7861 92.5195 18.7861ZM93.5034 15.4815C94.1256 15.4815 94.6722 15.3385 95.1431 15.0526C95.6308 14.7667 96.0008 14.3715 96.253 13.867C96.5221 13.3624 96.6567 12.7822 96.6567 12.1263C96.6567 11.4704 96.5221 10.8902 96.253 10.3857C96.0008 9.88118 95.6308 9.48596 95.1431 9.20006C94.6722 8.91416 94.1256 8.77121 93.5034 8.77121C92.8979 8.77121 92.3513 8.91416 91.8636 9.20006C91.3927 9.48596 91.0228 9.88118 90.7537 10.3857C90.4846 10.8902 90.3501 11.462 90.3501 12.1011C90.3501 12.757 90.4846 13.3456 90.7537 13.867C91.0228 14.3715 91.3927 14.7667 91.8636 15.0526C92.3513 15.3385 92.8979 15.4815 93.5034 15.4815ZM109.402 18.7861C108.09 18.7861 106.938 18.517 105.946 17.9789C104.954 17.4239 104.172 16.6587 103.6 15.6833C103.045 14.691 102.767 13.5558 102.767 12.2777C102.767 10.9659 103.045 9.79709 103.6 8.77121C104.155 7.74534 104.928 6.93809 105.921 6.34947C106.913 5.76086 108.065 5.46655 109.377 5.46655C110.655 5.46655 111.773 5.74404 112.732 6.29902C113.69 6.854 114.439 7.6108 114.977 8.5694C115.532 9.51119 115.809 10.6043 115.809 11.8488C115.809 12.017 115.801 12.2104 115.784 12.429C115.784 12.6309 115.767 12.8411 115.734 13.0597H105.466V10.865H111.95C111.916 10.1587 111.655 9.59528 111.168 9.17484C110.697 8.73758 110.108 8.51895 109.402 8.51895C108.864 8.51895 108.376 8.64508 107.939 8.89735C107.501 9.14961 107.148 9.52801 106.879 10.0325C106.627 10.5371 106.501 11.1761 106.501 11.9497V12.7065C106.501 13.2952 106.61 13.8165 106.829 14.2706C107.064 14.7247 107.392 15.0778 107.813 15.3301C108.25 15.5824 108.763 15.7085 109.351 15.7085C109.906 15.7085 110.36 15.5992 110.714 15.3805C111.084 15.1451 111.369 14.8508 111.571 14.4976H115.431C115.195 15.3049 114.792 16.0364 114.22 16.6923C113.648 17.3314 112.95 17.8443 112.126 18.2311C111.302 18.6011 110.394 18.7861 109.402 18.7861Z" fill="#252F3D"/>
<mask id="mask0_241_3496" style="mask-type:alpha" maskUnits="userSpaceOnUse" x="17" y="0" width="9" height="20">
<path d="M24.7825 0.197266H18.25L19.3392 3.56664H23.6933L24.7825 0.197266Z" fill="black"/>
<path d="M23.7092 4.44922H19.3551L17.9766 14.6288L21.5323 19.4078L25.0564 14.6288L23.7092 4.44922Z" fill="black"/>
</mask>
<g mask="url(#mask0_241_3496)">
<path d="M17.4297 0.197266H21.7865V19.8029H17.4297V10.0001V0.197266Z" fill="#772474"/>
<path d="M21.5156 0.171876H25.8724V19.7775H21.5156V0.171876Z" fill="#943195"/>
</g>
</g>
<defs>
<clipPath id="clip0_241_3496">
<rect width="116" height="19.6056" fill="white" transform="translate(0 0.197266)"/>
</clipPath>
</defs>
</svg>
