<svg xmlns="http://www.w3.org/2000/svg" width="56" height="56" viewBox="0 0 56 56" fill="none">
  <g clip-path="url(#clip0_241_5180)">
    <path d="M21.1228 23.4841C22.3756 23.4841 23.3911 22.4686 23.3911 21.2158C23.3911 19.9631 22.3756 18.9475 21.1228 18.9475C19.8701 18.9475 18.8545 19.9631 18.8545 21.2158C18.8545 22.4686 19.8701 23.4841 21.1228 23.4841Z" stroke="white" stroke-width="4.53664" stroke-linecap="round" stroke-linejoin="round"/>
    <path d="M34.7341 37.094C35.9869 37.094 37.0025 36.0784 37.0025 34.8257C37.0025 33.5729 35.9869 32.5574 34.7341 32.5574C33.4814 32.5574 32.4658 33.5729 32.4658 34.8257C32.4658 36.0784 33.4814 37.094 34.7341 37.094Z" stroke="white" stroke-width="4.53664" stroke-linecap="round" stroke-linejoin="round"/>
    <path d="M18.8534 21.2159C18.8534 25.4271 20.5263 29.4657 23.504 32.4435C26.4818 35.4212 30.5205 37.0941 34.7316 37.0941M14.3168 48.8894C19.4845 52.2619 25.7186 53.5999 31.8151 52.6449C37.9116 51.6899 43.4379 48.5096 47.3267 43.7184C51.2156 38.9271 53.191 32.8648 52.8716 26.7022C52.5521 20.5396 49.9603 14.7141 45.5969 10.3506C41.2335 5.98719 35.4079 3.39545 29.2453 3.07597C23.0828 2.75649 17.0204 4.73193 12.2292 8.62078C7.43791 12.5096 4.25766 18.036 3.30265 24.1324C2.34763 30.2289 3.68561 36.463 7.05815 41.6307L5.2435 50.704L14.3168 48.8894Z" stroke="white" stroke-width="4.53664" stroke-linecap="round" stroke-linejoin="round"/>
  </g>
  <defs>
    <clipPath id="clip0_241_5180">
      <rect width="54.4396" height="54.4396" fill="white" transform="translate(0.707031 0.801025)"/>
    </clipPath>
  </defs>
</svg>