<svg width="404" height="323" viewBox="0 0 404 323" fill="none" xmlns="http://www.w3.org/2000/svg">
<rect x="69.3974" y="13.1679" width="271.107" height="60.9808" rx="30.4904" transform="rotate(-1.38806 69.3974 13.1679)" fill="#F8FAFC"/>
<rect x="69.3974" y="13.1679" width="271.107" height="60.9808" rx="30.4904" transform="rotate(-1.38806 69.3974 13.1679)" stroke="#64748B" stroke-width="1.17308"/>
<path d="M129.323 32.5889L122.396 52.3858L119.441 52.4574L111.564 33.0193L114.294 32.9531L120.867 49.7193L126.621 32.6544L129.323 32.5889ZM134.13 32.4725L134.605 52.0899L132.044 52.152L131.569 32.5345L134.13 32.4725ZM144.04 32.2323C146.179 32.1805 148.037 32.5391 149.614 33.3082C151.209 34.0581 152.438 35.1642 153.299 36.6266C154.179 38.0884 154.644 39.8232 154.693 41.8309C154.741 43.8387 154.361 45.5939 153.553 47.0967C152.763 48.5803 151.589 49.7352 150.032 50.5615C148.493 51.3685 146.654 51.798 144.515 51.8498L138.408 51.9978L137.932 32.3803L144.04 32.2323ZM144.464 49.7389C146.997 49.6775 148.914 48.9646 150.214 47.6001C151.513 46.2168 152.134 44.3149 152.075 41.8944C152.016 39.4551 151.294 37.5669 149.91 36.2299C148.545 34.8925 146.605 34.2542 144.09 34.3151L140.544 34.401L140.918 49.8248L144.464 49.7389ZM159.881 33.9325L160.04 40.4904L167.189 40.3172L167.24 42.4281L160.091 42.6013L160.255 49.3563L168.248 49.1626L168.299 51.2735L157.745 51.5292L157.269 31.8836L167.823 31.6279L167.874 33.7388L159.881 33.9325ZM180.511 51.1747C178.691 51.2188 177.02 50.8369 175.498 50.0289C173.976 49.2021 172.756 48.0395 171.837 46.541C170.937 45.0233 170.463 43.3075 170.417 41.3936C170.371 39.4797 170.76 37.7524 171.587 36.2116C172.431 34.6516 173.594 33.4312 175.075 32.5505C176.555 31.651 178.205 31.1792 180.025 31.1351C181.864 31.0905 183.544 31.4816 185.066 32.3084C186.588 33.1164 187.799 34.2698 188.699 35.7688C189.599 37.2677 190.072 38.9835 190.119 40.9162C190.166 42.8489 189.776 44.5856 188.95 46.1264C188.123 47.6671 186.97 48.8873 185.49 49.7868C184.009 50.6675 182.349 51.1302 180.511 51.1747ZM180.457 48.9512C181.827 48.918 183.048 48.5693 184.121 47.9049C185.212 47.2402 186.053 46.3092 186.644 45.1121C187.253 43.9145 187.539 42.537 187.501 40.9796C187.463 39.4035 187.111 38.0415 186.445 36.8936C185.797 35.7265 184.921 34.8371 183.817 34.2255C182.714 33.6139 181.467 33.3249 180.079 33.3586C178.69 33.3922 177.46 33.7412 176.387 34.4056C175.314 35.0699 174.473 36.0008 173.864 37.1984C173.273 38.3768 172.996 39.754 173.034 41.3302C173.072 42.8876 173.415 44.2498 174.063 45.4169C174.729 46.5836 175.615 47.4727 176.718 48.0843C177.841 48.6954 179.087 48.9844 180.457 48.9512ZM202.252 32.9058L202.411 39.4637L209.56 39.2905L209.611 41.4014L202.462 41.5746L202.626 48.3296L210.619 48.1359L210.67 50.2468L200.116 50.5025L199.64 30.8569L210.194 30.6012L210.246 32.7121L202.252 32.9058ZM219.615 30.4011C221.754 30.3492 223.612 30.7079 225.189 31.477C226.785 32.2269 228.013 33.333 228.874 34.7953C229.755 36.2572 230.219 37.992 230.268 39.9997C230.317 42.0074 229.937 43.7627 229.128 45.2654C228.338 46.749 227.164 47.9039 225.607 48.7302C224.069 49.5373 222.23 49.9667 220.091 50.0185L213.983 50.1665L213.508 30.5491L219.615 30.4011ZM220.04 47.9076C222.573 47.8462 224.489 47.1333 225.789 45.7688C227.089 44.3855 227.709 42.4836 227.65 40.0631C227.591 37.6238 226.87 35.7357 225.485 34.3987C224.12 33.0612 222.18 32.4229 219.666 32.4838L216.119 32.5698L216.493 47.9936L220.04 47.9076ZM235.406 30.0184L235.881 49.6359L233.32 49.698L232.845 30.0805L235.406 30.0184ZM251.283 29.6337L251.333 31.7165L245.985 31.8461L246.41 49.3808L243.849 49.4428L243.424 31.9081L238.048 32.0384L237.998 29.9556L251.283 29.6337ZM256.434 29.5089L256.909 49.1264L254.348 49.1885L253.872 29.571L256.434 29.5089ZM276.135 48.6605L273.574 48.7226L262.894 33.3514L263.273 48.9722L260.711 49.0343L260.235 29.3886L262.797 29.3266L273.476 44.6696L273.098 29.077L275.659 29.0149L276.135 48.6605ZM294.462 34.2762C293.89 33.1448 293.08 32.282 292.033 31.6878C290.986 31.0749 289.777 30.785 288.407 30.8182C287.038 30.8513 285.807 31.2003 284.715 31.8651C283.642 32.5107 282.801 33.4323 282.191 34.6299C281.6 35.8082 281.324 37.1667 281.361 38.7053C281.398 40.2439 281.74 41.5874 282.388 42.7358C283.054 43.8837 283.939 44.7634 285.043 45.375C286.165 45.9674 287.411 46.247 288.78 46.2138C290.694 46.1674 292.257 45.5569 293.467 44.3823C294.678 43.2077 295.363 41.6422 295.522 39.6858L287.698 39.8754L287.647 37.7926L298.202 37.5369L298.249 39.5071C298.138 41.1244 297.668 42.619 296.837 43.9909C296.006 45.344 294.897 46.4317 293.509 47.2539C292.12 48.0573 290.563 48.4799 288.836 48.5217C287.016 48.5658 285.345 48.1839 283.824 47.3759C282.302 46.5491 281.082 45.3865 280.163 43.888C279.263 42.3891 278.79 40.6826 278.743 38.7687C278.697 36.8548 279.087 35.1275 279.913 33.5867C280.758 32.0267 281.92 30.8064 283.401 29.9256C284.881 29.0261 286.531 28.5543 288.351 28.5102C290.434 28.4598 292.286 28.9312 293.906 29.9246C295.544 30.9175 296.752 32.3432 297.529 34.2019L294.462 34.2762Z" fill="#1E293B"/>
<rect x="25.3782" y="66.2575" width="236.254" height="60.9808" rx="30.4904" transform="rotate(2 25.3782 66.2575)" fill="#F8FAFC"/>
<rect x="25.3782" y="66.2575" width="236.254" height="60.9808" rx="30.4904" transform="rotate(2 25.3782 66.2575)" stroke="#64748B" stroke-width="1.17308"/>
<path d="M65.4864 103.807L56.9329 103.508L55.2049 107.814L52.5038 107.72L60.2752 88.469L63.2295 88.5721L69.6109 108.317L66.9098 108.223L65.4864 103.807ZM64.8276 101.699L61.6282 91.6714L57.7371 101.452L64.8276 101.699ZM83.9091 89.1816L83.8364 91.2637L75.311 90.966L75.0801 97.5781L82.0017 97.8198L81.929 99.9019L75.0073 99.6602L74.6988 108.495L72.1384 108.406L72.8232 88.7945L83.9091 89.1816ZM98.5094 89.6914L98.4367 91.7736L93.0907 91.5869L92.4786 109.116L89.9181 109.027L90.5303 91.4975L85.1562 91.3098L85.2289 89.2277L98.5094 89.6914ZM103.586 91.9534L103.357 98.5092L110.504 98.7588L110.43 100.869L103.284 100.619L103.048 107.372L111.039 107.651L110.965 109.762L100.414 109.393L101.099 89.7537L111.651 90.1222L111.577 92.2324L103.586 91.9534ZM124.603 110.238L120.212 102.056L117.117 101.948L116.837 109.967L114.276 109.877L114.961 90.2659L121.292 90.487C122.774 90.5388 124.012 90.8356 125.008 91.3774C126.022 91.9199 126.767 92.6314 127.243 93.5119C127.719 94.3925 127.938 95.3861 127.9 96.4928C127.852 97.8434 127.417 99.0207 126.593 100.025C125.788 101.03 124.601 101.674 123.032 101.957L127.669 110.345L124.603 110.238ZM117.189 99.8937L120.959 100.025C122.347 100.074 123.4 99.7725 124.117 99.1215C124.836 98.4517 125.215 97.5447 125.255 96.4005C125.295 95.2375 124.98 94.325 124.308 93.663C123.655 93.0016 122.625 92.6464 121.218 92.5973L117.448 92.4656L117.189 99.8937ZM149.515 106.741L140.962 106.443L139.234 110.749L136.533 110.654L144.304 91.4033L147.258 91.5065L153.64 111.252L150.938 111.157L149.515 106.741ZM148.856 104.634L145.657 94.6057L141.766 104.386L148.856 104.634ZM167.938 92.1159L167.865 94.198L159.34 93.9003L159.109 100.512L166.03 100.754L165.958 102.836L159.036 102.595L158.728 111.429L156.167 111.34L156.852 91.7288L167.938 92.1159ZM181.553 92.5914L181.481 94.6735L172.955 94.3758L172.724 100.988L179.646 101.23L179.573 103.312L172.652 103.07L172.343 111.905L169.783 111.816L170.467 92.2043L181.553 92.5914ZM186.571 94.8513L186.342 101.407L193.488 101.657L193.415 103.767L186.268 103.517L186.032 110.27L194.023 110.549L193.949 112.659L183.398 112.291L184.084 92.6516L194.635 93.0201L194.562 95.1303L186.571 94.8513ZM196.647 102.922C196.714 101.009 197.205 99.3074 198.121 97.8182C199.038 96.3102 200.252 95.1506 201.764 94.3395C203.295 93.529 204.97 93.1556 206.79 93.2191C208.928 93.2938 210.776 93.8748 212.335 94.9622C213.893 96.0495 215.005 97.5532 215.67 99.4733L212.603 99.3662C212.101 98.1655 211.345 97.2282 210.335 96.5544C209.345 95.8813 208.137 95.5198 206.711 95.4701C205.342 95.4222 204.102 95.6982 202.992 96.298C201.881 96.8978 200.996 97.7777 200.336 98.9378C199.676 100.079 199.319 101.438 199.264 103.013C199.21 104.57 199.471 105.95 200.049 107.154C200.627 108.338 201.449 109.269 202.515 109.944C203.581 110.62 204.798 110.982 206.168 111.03C207.593 111.079 208.823 110.813 209.858 110.229C210.912 109.627 211.731 108.745 212.317 107.582L215.383 107.689C214.586 109.539 213.373 110.953 211.742 111.929C210.112 112.886 208.228 113.327 206.09 113.252C204.27 113.189 202.625 112.709 201.154 111.812C199.702 110.898 198.571 109.666 197.762 108.116C196.952 106.567 196.58 104.835 196.647 102.922ZM231.188 94.3247L231.115 96.4068L225.77 96.2201L225.157 113.749L222.597 113.66L223.209 96.1307L217.835 95.943L217.908 93.8609L231.188 94.3247Z" fill="#1E293B"/>
<rect x="241.641" y="74.5362" width="112.384" height="60.9808" rx="30.4904" transform="rotate(-5.56359 241.641 74.5362)" fill="#F8FAFC"/>
<rect x="241.641" y="74.5362" width="112.384" height="60.9808" rx="30.4904" transform="rotate(-5.56359 241.641 74.5362)" stroke="#64748B" stroke-width="1.17308"/>
<path d="M301.833 104.97L293.315 105.8L292.169 110.296L289.479 110.558L294.649 90.4516L297.591 90.165L306.516 108.899L303.826 109.161L301.833 104.97ZM300.903 102.968L296.411 93.448L293.842 103.655L300.903 102.968ZM309.68 88.8742L311.583 108.405L309.033 108.653L307.13 89.1226L309.68 88.8742Z" fill="#1E293B"/>
<rect x="43.6095" y="136.45" width="290.123" height="60.9808" rx="30.4904" transform="rotate(-2.28471 43.6095 136.45)" fill="#F8FAFC"/>
<rect x="43.6095" y="136.45" width="290.123" height="60.9808" rx="30.4904" transform="rotate(-2.28471 43.6095 136.45)" stroke="#64748B" stroke-width="1.17308"/>
<path d="M105.838 154.851L99.2215 174.754L96.2677 174.872L88.0868 155.559L90.8155 155.45L97.6509 172.111L103.137 154.959L105.838 154.851ZM110.642 154.659L111.424 174.267L108.864 174.369L108.082 154.761L110.642 154.659ZM121.45 174.064C120.156 174.116 118.984 173.937 117.934 173.528C116.903 173.1 116.08 172.494 115.467 171.711C114.853 170.909 114.515 169.973 114.453 168.905L117.182 168.796C117.313 169.712 117.719 170.475 118.401 171.086C119.1 171.678 120.088 171.949 121.363 171.898C122.582 171.849 123.527 171.511 124.197 170.883C124.885 170.236 125.21 169.434 125.171 168.478C125.142 167.727 124.911 167.126 124.48 166.674C124.048 166.221 123.518 165.886 122.89 165.666C122.261 165.447 121.416 165.218 120.355 164.979C119.047 164.693 117.993 164.397 117.192 164.091C116.409 163.784 115.722 163.285 115.131 162.595C114.558 161.885 114.248 160.921 114.199 159.702C114.156 158.633 114.39 157.675 114.901 156.828C115.412 155.981 116.146 155.313 117.104 154.824C118.08 154.334 119.205 154.064 120.481 154.013C122.319 153.94 123.837 154.339 125.037 155.212C126.255 156.084 126.969 157.276 127.18 158.789L124.367 158.902C124.243 158.155 123.823 157.514 123.107 156.98C122.39 156.426 121.459 156.172 120.315 156.217C119.246 156.26 118.385 156.576 117.732 157.166C117.079 157.737 116.772 158.519 116.812 159.513C116.84 160.226 117.06 160.799 117.472 161.234C117.903 161.667 118.413 161.994 119.005 162.215C119.614 162.416 120.459 162.645 121.54 162.903C122.848 163.207 123.903 163.522 124.705 163.847C125.506 164.153 126.203 164.661 126.794 165.37C127.385 166.06 127.706 167.024 127.755 168.262C127.793 169.218 127.576 170.129 127.103 170.993C126.631 171.857 125.908 172.571 124.935 173.136C123.962 173.701 122.8 174.01 121.45 174.064ZM132.894 153.771L133.389 166.177C133.459 167.922 133.932 169.199 134.81 170.009C135.706 170.819 136.914 171.193 138.433 171.132C139.934 171.073 141.089 170.604 141.899 169.726C142.728 168.848 143.108 167.537 143.038 165.792L142.543 153.386L145.103 153.284L145.597 165.662C145.662 167.294 145.389 168.685 144.778 169.837C144.165 170.969 143.307 171.83 142.204 172.419C141.119 173.007 139.883 173.329 138.495 173.384C137.107 173.439 135.84 173.218 134.693 172.719C133.565 172.219 132.65 171.429 131.95 170.349C131.267 169.249 130.893 167.883 130.828 166.251L130.334 153.874L132.894 153.771ZM161.01 167.921L152.458 168.262L151.056 172.686L148.356 172.793L154.667 153.015L157.621 152.898L165.46 172.111L162.759 172.219L161.01 167.921ZM160.195 165.869L156.256 156.108L153.106 166.152L160.195 165.869ZM170.464 169.826L177.328 169.552L177.411 171.634L167.987 172.01L167.204 152.403L169.764 152.3L170.464 169.826ZM202.378 174.357L198.311 170.603C197.365 170.904 196.395 171.074 195.401 171.114C193.582 171.186 191.906 170.831 190.372 170.046C188.837 169.244 187.598 168.1 186.656 166.616C185.732 165.113 185.232 163.405 185.156 161.492C185.079 159.579 185.442 157.846 186.244 156.292C187.065 154.719 188.208 153.481 189.675 152.577C191.141 151.654 192.783 151.157 194.602 151.084C196.44 151.011 198.127 151.375 199.661 152.178C201.195 152.962 202.424 154.097 203.347 155.581C204.271 157.066 204.771 158.774 204.848 160.706C204.923 162.581 204.577 164.286 203.812 165.819C203.047 167.352 201.959 168.579 200.55 169.499L205.697 174.225L202.378 174.357ZM187.772 161.387C187.834 162.944 188.198 164.301 188.864 165.457C189.549 166.614 190.448 167.489 191.561 168.083C192.693 168.676 193.944 168.946 195.313 168.891C196.682 168.837 197.897 168.469 198.96 167.788C200.041 167.106 200.867 166.162 201.439 164.956C202.029 163.749 202.294 162.367 202.232 160.81C202.169 159.235 201.795 157.879 201.111 156.741C200.445 155.585 199.556 154.709 198.442 154.115C197.329 153.521 196.079 153.251 194.691 153.306C193.303 153.362 192.078 153.73 191.016 154.411C189.953 155.092 189.127 156.036 188.536 157.243C187.964 158.431 187.709 159.812 187.772 161.387ZM209.833 150.702L210.328 163.108C210.397 164.852 210.871 166.129 211.749 166.939C212.645 167.749 213.853 168.123 215.372 168.063C216.872 168.003 218.027 167.534 218.838 166.657C219.667 165.778 220.046 164.467 219.977 162.723L219.482 150.317L222.042 150.215L222.536 162.593C222.601 164.224 222.328 165.616 221.716 166.767C221.104 167.9 220.246 168.761 219.142 169.349C218.058 169.937 216.821 170.259 215.433 170.314C214.046 170.37 212.778 170.148 211.631 169.649C210.503 169.149 209.589 168.359 208.888 167.279C208.206 166.179 207.832 164.813 207.767 163.182L207.273 150.804L209.833 150.702ZM237.948 164.852L229.396 165.193L227.995 169.616L225.294 169.724L231.606 149.946L234.559 149.828L242.398 169.041L239.697 169.149L237.948 164.852ZM237.134 162.799L233.194 153.038L230.045 163.082L237.134 162.799ZM247.402 166.757L254.266 166.483L254.349 168.565L244.925 168.941L244.143 149.333L246.703 149.231L247.402 166.757ZM258.283 148.769L259.065 168.376L256.505 168.479L255.723 148.871L258.283 148.769ZM274.152 148.136L274.235 150.217L268.89 150.431L269.589 167.957L267.029 168.059L266.33 150.533L260.957 150.747L260.874 148.665L274.152 148.136ZM290.468 147.485L284.57 159.949L284.865 167.347L282.305 167.449L282.01 160.051L275.109 148.098L277.95 147.984L283.185 157.722L287.627 147.598L290.468 147.485Z" fill="#1E293B"/>
<rect x="194.587" y="187.748" width="176.694" height="60.9808" rx="30.4904" transform="rotate(-0.0579174 194.587 187.748)" fill="#F8FAFC"/>
<rect x="194.587" y="187.748" width="176.694" height="60.9808" rx="30.4904" transform="rotate(-0.0579174 194.587 187.748)" stroke="#64748B" stroke-width="1.17308"/>
<path d="M254.238 223.814L245.68 223.822L244.107 228.188L241.405 228.19L248.48 208.673L251.436 208.67L258.522 228.173L255.819 228.176L254.238 223.814ZM253.504 221.731L249.947 211.824L246.409 221.738L253.504 221.731ZM263.537 208.545L263.55 220.961C263.551 222.706 263.975 224.001 264.82 224.845C265.685 225.688 266.877 226.109 268.397 226.108C269.899 226.106 271.071 225.683 271.915 224.837C272.778 223.992 273.208 222.696 273.206 220.951L273.194 208.535L275.756 208.532L275.768 220.92C275.77 222.553 275.443 223.933 274.787 225.06C274.131 226.168 273.241 226.995 272.115 227.54C271.008 228.085 269.76 228.359 268.371 228.36C266.982 228.362 265.725 228.091 264.598 227.548C263.49 227.004 262.607 226.179 261.949 225.073C261.31 223.947 260.989 222.568 260.988 220.935L260.975 208.547L263.537 208.545ZM285.576 208.523C287.716 208.52 289.565 208.922 291.123 209.728C292.701 210.514 293.903 211.649 294.731 213.131C295.577 214.612 296.001 216.358 296.003 218.366C296.005 220.374 295.584 222.12 294.741 223.604C293.917 225.069 292.717 226.196 291.141 226.986C289.584 227.757 287.735 228.144 285.596 228.146L279.486 228.152L279.467 208.529L285.576 208.523ZM285.594 226.034C288.128 226.032 290.06 225.363 291.391 224.029C292.723 222.677 293.387 220.79 293.385 218.369C293.382 215.929 292.704 214.024 291.352 212.655C290.018 211.287 288.093 210.603 285.578 210.606L282.031 210.61L282.046 226.038L285.594 226.034ZM301.371 208.507L301.391 228.13L298.829 228.132L298.809 208.509L301.371 208.507ZM314.091 228.314C312.271 228.316 310.609 227.895 309.107 227.052C307.604 226.19 306.411 225 305.528 223.48C304.663 221.942 304.229 220.216 304.227 218.301C304.225 216.387 304.655 214.669 305.517 213.148C306.398 211.608 307.588 210.415 309.089 209.569C310.59 208.704 312.25 208.27 314.071 208.269C315.91 208.267 317.581 208.697 319.084 209.559C320.586 210.402 321.77 211.583 322.635 213.102C323.5 214.622 323.933 216.348 323.935 218.281C323.937 220.215 323.507 221.942 322.645 223.463C321.783 224.984 320.602 226.177 319.101 227.042C317.601 227.888 315.931 228.312 314.091 228.314ZM314.089 226.09C315.459 226.089 316.688 225.768 317.776 225.129C318.883 224.49 319.745 223.578 320.364 222.395C321 221.212 321.318 219.842 321.317 218.284C321.315 216.707 320.995 215.338 320.355 214.174C319.735 212.993 318.88 212.083 317.79 211.446C316.701 210.809 315.462 210.491 314.073 210.493C312.684 210.494 311.446 210.814 310.358 211.454C309.27 212.093 308.407 213.004 307.77 214.187C307.152 215.352 306.844 216.722 306.846 218.299C306.847 219.856 307.158 221.226 307.779 222.408C308.418 223.59 309.282 224.499 310.372 225.136C311.48 225.773 312.719 226.091 314.089 226.09Z" fill="#1E293B"/>
<rect x="105.617" y="248.253" width="181.904" height="60.9808" rx="30.4904" transform="rotate(-3.03657 105.617 248.253)" fill="#F8FAFC"/>
<rect x="105.617" y="248.253" width="181.904" height="60.9808" rx="30.4904" transform="rotate(-3.03657 105.617 248.253)" stroke="#64748B" stroke-width="1.17308"/>
<path d="M148.456 268.963L148.803 275.514L155.944 275.135L156.056 277.244L148.915 277.623L149.273 284.37L157.258 283.946L157.369 286.055L146.827 286.614L145.786 266.991L156.328 266.431L156.44 268.54L148.456 268.963ZM170.716 265.696L170.826 267.777L162.308 268.229L162.658 274.835L169.574 274.469L169.685 276.549L162.768 276.916L163.237 285.744L160.678 285.88L159.639 266.284L170.716 265.696ZM184.321 264.975L184.431 267.055L175.912 267.507L176.263 274.114L183.179 273.747L183.289 275.827L176.373 276.194L176.841 285.022L174.283 285.158L173.244 265.562L184.321 264.975ZM189.517 266.785L189.864 273.336L197.005 272.957L197.117 275.066L189.976 275.444L190.334 282.192L198.319 281.768L198.431 283.877L187.888 284.436L186.847 264.812L197.39 264.253L197.501 266.362L189.517 266.785ZM200.263 273.94C200.162 272.028 200.502 270.291 201.283 268.727C202.064 267.144 203.172 265.882 204.607 264.942C206.061 264 207.696 263.481 209.514 263.384C211.651 263.271 213.543 263.687 215.191 264.634C216.839 265.58 218.079 266.98 218.91 268.835L215.846 268.997C215.239 267.845 214.404 266.978 213.339 266.395C212.293 265.812 211.058 265.558 209.634 265.633C208.266 265.706 207.055 266.09 206.002 266.785C204.948 267.48 204.144 268.434 203.588 269.648C203.031 270.842 202.794 272.227 202.878 273.801C202.96 275.357 203.342 276.709 204.023 277.857C204.703 278.986 205.604 279.841 206.725 280.42C207.846 281 209.09 281.253 210.459 281.181C211.883 281.105 213.085 280.731 214.064 280.059C215.061 279.367 215.8 278.416 216.281 277.207L219.346 277.044C218.714 278.957 217.629 280.471 216.091 281.587C214.551 282.683 212.713 283.288 210.576 283.402C208.758 283.498 207.077 283.164 205.533 282.401C204.007 281.617 202.772 280.489 201.829 279.016C200.887 277.544 200.365 275.852 200.263 273.94ZM233.916 262.344L234.026 264.424L228.685 264.707L229.614 282.223L227.055 282.358L226.126 264.843L220.756 265.128L220.646 263.048L233.916 262.344ZM243.766 281.669C242.473 281.738 241.299 281.575 240.244 281.179C239.207 280.765 238.377 280.17 237.753 279.394C237.128 278.601 236.778 277.67 236.703 276.603L239.43 276.458C239.572 277.371 239.988 278.129 240.678 278.732C241.386 279.315 242.377 279.572 243.651 279.504C244.87 279.44 245.81 279.089 246.471 278.453C247.151 277.796 247.465 276.99 247.414 276.034C247.375 275.285 247.136 274.686 246.699 274.24C246.262 273.793 245.727 273.464 245.096 273.253C244.464 273.043 243.616 272.824 242.552 272.599C241.241 272.33 240.183 272.048 239.378 271.752C238.591 271.456 237.898 270.966 237.298 270.284C236.716 269.582 236.392 268.622 236.328 267.403C236.271 266.335 236.492 265.374 236.992 264.52C237.492 263.667 238.217 262.989 239.168 262.488C240.138 261.985 241.26 261.7 242.534 261.633C244.371 261.535 245.895 261.915 247.105 262.772C248.335 263.627 249.065 264.81 249.295 266.321L246.484 266.47C246.351 265.725 245.922 265.09 245.199 264.564C244.475 264.02 243.541 263.778 242.397 263.839C241.329 263.896 240.472 264.223 239.827 264.821C239.182 265.401 238.885 266.187 238.938 267.18C238.975 267.892 239.203 268.463 239.621 268.892C240.057 269.32 240.572 269.64 241.166 269.853C241.777 270.046 242.625 270.264 243.71 270.508C245.022 270.795 246.081 271.096 246.887 271.41C247.692 271.706 248.395 272.204 248.996 272.906C249.596 273.588 249.929 274.548 249.995 275.785C250.046 276.741 249.84 277.654 249.379 278.524C248.918 279.394 248.204 280.118 247.239 280.696C246.273 281.273 245.116 281.598 243.766 281.669Z" fill="#1E293B"/>
<rect x="18.5612" y="202.416" width="184.907" height="60.9808" rx="30.4904" transform="rotate(-4.58581 18.5612 202.416)" fill="#F8FAFC"/>
<rect x="18.5612" y="202.416" width="184.907" height="60.9808" rx="30.4904" transform="rotate(-4.58581 18.5612 202.416)" stroke="#64748B" stroke-width="1.17308"/>
<path d="M48.0906 230.811C47.9375 228.902 48.2305 227.156 48.9696 225.571C49.7072 223.968 50.7805 222.677 52.1895 221.698C53.6172 220.717 55.2384 220.154 57.0532 220.009C59.186 219.837 61.0889 220.203 62.7617 221.104C64.4345 222.006 65.7115 223.372 66.5927 225.203L63.5338 225.448C62.8967 224.313 62.0381 223.469 60.9581 222.915C59.8968 222.36 58.6552 222.14 57.2333 222.254C55.8675 222.363 54.6676 222.78 53.6334 223.503C52.5993 224.226 51.8209 225.202 51.298 226.43C50.7736 227.639 50.5745 229.03 50.7005 230.601C50.8251 232.154 51.2433 233.495 51.9553 234.624C52.6657 235.735 53.589 236.565 54.7252 237.114C55.8613 237.663 57.1123 237.882 58.478 237.773C59.8999 237.659 61.0913 237.253 62.052 236.554C63.03 235.836 63.743 234.865 64.1911 233.643L67.25 233.398C66.6704 235.327 65.6267 236.87 64.119 238.027C62.6098 239.164 60.7887 239.819 58.6559 239.99C56.8411 240.135 55.1516 239.847 53.5873 239.125C52.0402 238.383 50.7756 237.289 49.7935 235.843C48.8113 234.396 48.2437 232.719 48.0906 230.811ZM81.2466 238.008L75.9465 230.384L72.8595 230.632L73.501 238.63L70.9472 238.835L69.3783 219.274L75.6926 218.768C77.1707 218.649 78.4351 218.802 79.4859 219.226C80.5554 219.649 81.3772 220.27 81.9514 221.09C82.5256 221.91 82.857 222.872 82.9455 223.976C83.0535 225.323 82.7559 226.543 82.0527 227.635C81.3681 228.725 80.263 229.501 78.7371 229.962L84.3055 237.763L81.2466 238.008ZM72.6952 228.583L76.4557 228.281C77.8402 228.17 78.8515 227.75 79.4897 227.021C80.1265 226.273 80.399 225.329 80.3075 224.188C80.2145 223.028 79.7963 222.157 79.0531 221.577C78.3285 220.995 77.2646 220.76 75.8614 220.872L72.1009 221.174L72.6952 228.583ZM88.6113 219.822L89.1358 226.36L96.264 225.789L96.4328 227.893L89.3046 228.465L89.8448 235.2L97.8149 234.561L97.9838 236.666L87.4599 237.51L85.8887 217.922L96.4126 217.078L96.5814 219.182L88.6113 219.822ZM112.5 231.124L103.969 231.808L102.746 236.284L100.052 236.5L105.564 216.485L108.511 216.248L117.115 235.132L114.421 235.348L112.5 231.124ZM111.604 229.106L107.275 219.511L104.532 229.673L111.604 229.106ZM130.106 214.403L130.273 216.48L124.94 216.908L126.343 234.391L123.789 234.596L122.387 217.112L117.026 217.542L116.86 215.466L130.106 214.403ZM135.242 213.991L136.811 233.552L134.257 233.757L132.688 214.196L135.242 213.991ZM149.486 232.733C147.671 232.878 145.982 232.59 144.418 231.868C142.852 231.128 141.568 230.035 140.568 228.59C139.584 227.125 139.016 225.438 138.862 223.53C138.709 221.622 139.002 219.875 139.741 218.291C140.498 216.686 141.591 215.403 143.02 214.441C144.447 213.46 146.069 212.897 147.883 212.751C149.717 212.604 151.417 212.901 152.982 213.642C154.547 214.364 155.82 215.448 156.802 216.894C157.784 218.34 158.353 220.027 158.507 221.954C158.662 223.881 158.369 225.637 157.63 227.222C156.891 228.806 155.808 230.089 154.38 231.069C152.951 232.031 151.32 232.586 149.486 232.733ZM149.308 230.516C150.674 230.406 151.874 229.99 152.908 229.267C153.961 228.542 154.749 227.566 155.272 226.337C155.813 225.108 156.022 223.716 155.897 222.164C155.771 220.592 155.344 219.252 154.614 218.143C153.902 217.014 152.978 216.175 151.842 215.625C150.706 215.076 149.446 214.857 148.061 214.968C146.677 215.079 145.468 215.497 144.433 216.22C143.399 216.943 142.611 217.919 142.07 219.149C141.546 220.358 141.346 221.749 141.472 223.321C141.597 224.873 142.015 226.214 142.727 227.344C143.458 228.471 144.391 229.31 145.527 229.859C146.682 230.406 147.943 230.625 149.308 230.516ZM177.482 230.29L174.928 230.494L163.407 215.743L164.657 231.318L162.103 231.523L160.532 211.935L163.085 211.73L174.604 226.453L173.357 210.906L175.911 210.701L177.482 230.29Z" fill="#1E293B"/>
<path d="M51.6779 0.551757C51.6779 11.8915 57.3478 17.5614 68.6875 17.5614M68.6875 17.5614C57.3478 17.5614 51.6779 23.2312 51.6779 34.571M34.6683 17.5614C46.008 17.5614 51.6779 11.8915 51.6779 0.551758M51.6779 34.571C51.6779 23.2312 46.008 17.5614 34.6683 17.5614" stroke="white" stroke-width="1.17308"/>
<path d="M13.5565 153.052C13.5565 162.045 18.0533 166.542 27.0469 166.542M27.0469 166.542C18.0533 166.542 13.5565 171.039 13.5565 180.033M0.0661066 166.542C9.0597 166.542 13.5565 162.045 13.5565 153.052M13.5565 180.033C13.5565 171.039 9.0597 166.542 0.0661066 166.542" stroke="white" stroke-width="1.17308"/>
<path d="M363.141 34.571C357.275 34.571 354.343 31.6383 354.343 25.7729C354.343 31.6383 351.41 34.571 345.544 34.571C351.41 34.571 354.343 37.5037 354.343 43.3691C354.343 37.5037 357.275 34.571 363.141 34.571Z" stroke="white" stroke-width="1.17308"/>
<path d="M86.2891 297.927C80.4237 297.927 77.491 294.994 77.491 289.129C77.491 294.994 74.5583 297.927 68.6929 297.927C74.5583 297.927 77.491 300.86 77.491 306.725C77.491 300.86 80.4237 297.927 86.2891 297.927Z" stroke="white" stroke-width="1.17308"/>
<path d="M349.944 272.119C349.944 280.917 354.343 285.316 363.141 285.316M363.141 285.316C354.343 285.316 349.944 289.715 349.944 298.513M336.746 285.316C345.544 285.316 349.944 280.917 349.944 272.119M349.944 298.513C349.944 289.715 345.544 285.316 336.746 285.316" stroke="white" stroke-width="1.17308"/>
</svg>
